<?xml version="1.0" standalone="no"?>
<!DOCTYPE svg PUBLIC "-//W3C//DTD SVG 20010904//EN"
 "http://www.w3.org/TR/2001/REC-SVG-20010904/DTD/svg10.dtd">
<svg version="1.0" xmlns="http://www.w3.org/2000/svg"
 width="920.000000pt" height="920.000000pt" viewBox="0 0 920.000000 920.000000"
 preserveAspectRatio="xMidYMid meet">
<metadata>
Created by potrace 1.11, written by Peter Selinger 2001-2013
</metadata>
<g transform="translate(0.000000,920.000000) scale(0.100000,-0.100000)"
fill="#000000" stroke="none">
<path d="M6048 7984 c-2 -2 -35 -6 -74 -9 -109 -10 -226 -26 -236 -34 -2 -1
-16 -4 -33 -7 -37 -5 -70 -12 -70 -14 0 -1 -9 -3 -19 -5 -11 -2 -31 -7 -45
-11 -14 -4 -29 -8 -33 -9 -5 -2 -15 -3 -24 -4 -8 0 -13 -5 -10 -9 2 -4 -8 -7
-22 -6 -15 1 -31 -2 -37 -5 -5 -4 -28 -13 -50 -20 -22 -7 -49 -16 -60 -20 -11
-5 -40 -16 -65 -26 -63 -24 -182 -74 -202 -86 -48 -25 -64 -35 -69 -42 -3 -5
-8 -8 -10 -6 -5 2 -92 -41 -99 -50 -3 -3 -22 -15 -43 -26 -22 -11 -49 -29 -62
-40 -12 -11 -28 -21 -35 -23 -17 -4 -177 -125 -260 -197 -59 -50 -242 -237
-290 -294 -25 -30 -58 -69 -74 -87 -15 -19 -26 -34 -23 -34 3 0 -7 -15 -24
-32 -16 -18 -29 -36 -29 -41 0 -5 -6 -15 -12 -22 -36 -40 -71 -95 -61 -95 5 0
2 -4 -6 -9 -26 -16 -201 -354 -204 -392 -1 -11 -5 -19 -9 -19 -4 0 -8 -5 -8
-11 0 -6 -6 -25 -14 -42 -12 -28 -47 -128 -52 -149 -1 -5 -2 -9 -3 -10 -1 -2
-12 -41 -25 -88 -24 -92 -33 -100 -88 -73 -16 7 -28 11 -28 9 0 -3 -18 1 -39
9 -22 7 -52 16 -68 19 -15 3 -47 10 -70 14 -24 5 -43 7 -43 4 0 -2 -7 1 -15 8
-8 7 -15 10 -15 7 0 -3 -17 -1 -37 4 -21 5 -69 12 -108 15 -38 4 -79 10 -90
14 -11 4 -32 4 -47 -1 -15 -4 -30 -4 -33 0 -7 12 -365 11 -365 -1 0 -7 -5 -6
-13 1 -8 6 -16 9 -18 7 -2 -3 -31 -7 -64 -10 -33 -3 -78 -8 -100 -12 -22 -3
-53 -8 -70 -10 -40 -6 -99 -18 -147 -30 -48 -11 -73 -16 -85 -17 -7 0 -13 -3
-13 -6 0 -4 -11 -8 -26 -9 -14 -1 -34 -7 -45 -12 -10 -6 -19 -9 -19 -6 0 3
-37 -9 -82 -26 -46 -16 -89 -30 -95 -31 -7 0 -13 -4 -13 -8 0 -4 -16 -10 -35
-13 -20 -4 -33 -11 -30 -16 3 -5 -4 -7 -15 -5 -11 2 -20 0 -20 -6 0 -5 -9 -9
-20 -9 -11 0 -20 -5 -20 -11 0 -6 -6 -9 -12 -7 -7 3 -33 -8 -57 -24 -25 -15
-50 -28 -57 -28 -6 0 -17 -7 -24 -15 -7 -8 -16 -13 -20 -10 -5 3 -15 -2 -23
-10 -9 -8 -20 -15 -26 -15 -5 0 -16 -6 -23 -13 -7 -7 -29 -20 -48 -29 -19 -10
-47 -28 -61 -42 -15 -14 -29 -22 -32 -19 -4 3 -13 -1 -20 -8 -8 -8 -27 -23
-43 -34 -50 -36 -119 -88 -139 -106 -11 -10 -45 -39 -75 -65 -97 -83 -263
-256 -325 -339 -17 -21 -37 -46 -45 -55 -19 -19 -159 -229 -193 -290 -49 -86
-141 -275 -139 -284 2 -5 -4 -16 -12 -25 -8 -9 -15 -20 -15 -24 1 -4 -11 -38
-25 -75 -24 -64 -72 -219 -82 -262 -2 -11 -6 -30 -9 -42 -3 -13 -8 -36 -11
-52 -2 -16 -7 -32 -9 -35 -2 -4 -6 -27 -10 -51 -3 -25 -8 -52 -10 -60 -2 -8
-7 -37 -10 -65 -3 -27 -8 -76 -12 -110 -12 -100 -6 -560 7 -560 1 0 3 -18 4
-40 2 -22 9 -74 16 -115 8 -41 13 -78 12 -83 -1 -4 2 -7 7 -7 4 0 8 -8 8 -17
-1 -21 12 -91 20 -113 3 -8 7 -19 8 -25 9 -37 38 -133 45 -150 5 -11 18 -47
30 -80 11 -33 25 -69 30 -80 7 -16 37 -84 45 -105 22 -54 31 -70 37 -70 4 0 8
-8 8 -18 0 -10 4 -22 9 -27 8 -10 64 -109 85 -152 6 -13 14 -23 19 -23 4 0 7
-7 7 -15 0 -7 8 -19 18 -24 9 -6 13 -11 8 -11 -4 0 3 -15 18 -34 14 -19 26
-39 26 -44 0 -6 4 -12 9 -14 5 -2 31 -33 58 -69 63 -87 117 -149 233 -267 93
-95 222 -212 234 -212 3 0 14 -8 24 -18 35 -32 62 -52 72 -52 6 0 10 -4 10 -8
0 -4 13 -16 30 -25 16 -10 35 -23 42 -30 19 -17 69 -47 91 -54 9 -3 17 -8 17
-12 0 -3 39 -26 87 -51 49 -25 89 -48 91 -52 2 -5 7 -8 12 -8 4 0 42 -16 84
-36 42 -19 81 -32 88 -28 6 4 8 3 5 -3 -4 -6 13 -16 36 -23 23 -8 47 -17 53
-22 7 -5 20 -10 30 -12 11 -2 46 -13 79 -25 63 -21 238 -66 290 -75 17 -2 30
-5 30 -6 0 -2 33 -8 85 -16 127 -17 206 -24 348 -30 98 -3 122 -2 116 8 -6 10
-4 10 7 2 22 -16 208 -6 359 21 47 9 92 16 100 16 8 0 22 3 30 6 8 3 24 7 35
8 11 2 34 6 50 10 17 4 37 8 45 10 8 2 15 4 15 5 0 1 7 3 15 5 8 1 35 9 60 16
25 7 48 13 53 15 4 1 9 3 12 4 3 1 8 3 13 4 4 1 12 4 17 7 6 3 30 12 55 19 25
7 49 17 55 22 5 4 17 8 27 8 10 0 18 5 18 11 0 5 4 8 9 4 5 -3 12 -1 16 5 3 5
12 10 20 10 18 0 169 72 173 82 2 5 12 8 23 8 10 0 19 4 19 8 0 5 17 16 38 25
20 9 57 30 82 47 25 17 53 33 63 36 9 4 17 10 17 15 0 5 7 9 15 9 8 0 15 5 15
11 0 5 5 7 10 4 6 -3 10 -2 10 3 0 6 17 20 38 32 20 12 41 28 45 36 4 8 13 14
18 14 6 0 16 6 24 13 7 6 28 23 46 37 81 62 270 246 349 340 25 29 51 59 58
66 6 7 12 15 12 19 0 3 13 20 30 38 16 18 30 35 30 40 0 4 9 16 20 27 11 11
20 27 20 35 0 8 5 15 10 15 6 0 16 12 23 28 6 15 22 38 34 51 12 14 20 28 17
33 -3 4 -2 8 3 8 4 0 19 21 33 48 13 26 29 50 35 54 5 4 6 8 2 8 -5 0 0 12 11
27 22 33 55 102 58 123 2 8 8 16 13 18 6 2 11 8 11 14 0 5 14 44 31 86 17 43
32 82 33 87 2 6 6 17 9 25 10 24 37 103 42 122 3 10 7 26 9 35 3 10 11 39 19
65 8 26 12 50 8 54 -3 4 12 3 34 -1 22 -4 45 -8 50 -9 6 -1 15 -5 21 -8 21
-13 251 -64 334 -74 14 -1 36 -5 50 -8 138 -31 591 -25 780 10 14 2 32 5 40 5
13 1 36 6 120 24 8 2 15 4 15 5 0 1 11 4 25 6 47 8 65 11 65 13 0 3 12 6 54
15 113 25 515 192 541 225 3 3 11 7 18 9 7 1 31 13 52 27 22 14 44 25 50 25 5
0 10 4 10 9 0 5 14 14 30 21 17 7 30 16 30 21 0 5 6 9 13 9 6 0 23 9 37 20 14
11 59 45 100 76 41 32 77 61 78 66 2 4 8 8 13 8 25 0 374 352 388 391 2 6 15
23 30 39 28 31 40 46 56 72 6 9 25 37 43 62 17 26 32 51 32 57 0 5 3 9 8 9 4
0 21 26 37 57 17 31 37 65 45 75 8 10 13 20 11 21 -3 1 8 21 22 44 15 24 27
49 27 57 0 8 3 16 8 18 12 5 82 170 76 179 -3 5 -1 9 4 9 6 0 13 12 18 28 9
34 9 32 21 62 6 14 18 52 28 85 10 33 20 67 23 75 7 20 10 31 16 55 2 11 9 40
16 65 13 55 19 86 23 125 2 17 6 36 10 42 4 6 8 42 9 82 2 39 6 71 9 71 9 0
13 91 12 305 -1 234 -3 275 -16 275 -5 0 -5 6 2 13 6 8 9 16 6 19 -3 3 -8 25
-10 49 -3 24 -8 53 -10 65 -3 12 -7 39 -10 60 -4 21 -10 53 -15 69 -5 17 -11
44 -14 60 -2 17 -12 55 -20 85 -9 30 -22 73 -28 95 -6 22 -15 45 -19 50 -4 6
-10 25 -14 44 -8 39 -40 113 -46 107 -2 -2 -5 10 -6 27 -2 18 -7 33 -13 35 -5
2 -10 12 -10 23 0 10 -5 19 -11 19 -5 0 -7 5 -4 10 3 6 1 10 -4 10 -6 0 -11 9
-11 20 0 11 -5 20 -12 20 -6 0 -8 3 -5 6 4 4 -12 41 -35 83 -55 102 -62 113
-71 125 -4 6 -35 53 -70 105 -34 52 -66 101 -72 109 -11 17 -35 49 -50 66 -5
6 -35 41 -65 76 -89 106 -277 289 -370 360 -24 19 -53 43 -64 53 -11 9 -23 17
-26 17 -4 0 -17 9 -30 20 -12 11 -27 17 -33 13 -5 -3 -7 -1 -4 4 6 9 -109 87
-189 129 -11 6 -51 28 -87 48 -37 20 -67 33 -67 29 0 -5 -4 -3 -8 3 -9 14
-239 114 -262 114 -9 0 -20 4 -25 8 -11 9 -79 32 -107 36 -10 1 -21 5 -24 9
-4 4 -18 7 -30 7 -13 0 -25 4 -29 9 -3 6 -13 10 -23 9 -9 0 -26 3 -37 6 -36 9
-161 35 -196 41 -19 2 -60 9 -92 13 -31 5 -73 9 -92 8 -19 -1 -35 2 -35 5 0 6
-416 10 -422 3z"/>
</g>
</svg>
